<svg xmlns="http://www.w3.org/2000/svg" width="460" height="460"><path d="M138 199v2l1.813.625c3.124 1.964 3.894 3.949 5.187 7.375 1.06 6.126-1.202 9.545-4.418 14.516-1.391 2.185-2.543 4.332-3.644 6.672a40.322 40.322 0 0 1-4.313 7.062c-3.611 4.826-6.036 10.332-8.625 15.75h-2l-.32 1.625c-.857 2.993-2.158 5.594-3.555 8.375l-1.555 3.125c-1.368 2.505-2.843 4.618-4.57 6.875a79.495 79.495 0 0 0-1.938 3.813c-1.862 3.833-3.915 7.506-6.062 11.187h-2l-.375 2.813C101 294 101 294 99 297h-2l-2 4h-2v2c-5.863 2.199-9.048 1.984-15 0-3.987-2.658-5.48-5.504-7-10-.339-10.169 6.199-19.104 12-27l.96-2.426c1.047-2.592 2.294-4.556 3.915-6.824 2.994-4.366 5.155-8.848 7.125-13.75h2l.813-2.672c1.13-3.168 2.444-5.712 4.187-8.578 3.609-6.032 7.013-12.161 10.36-18.343 7.296-13.305 7.296-13.305 12.39-14.907 4.488-.805 8.79-.264 13.25.5Z" fill="#C6F651"/><path d="M232.625 138.625c4.017 2.326 6.622 5.058 8.05 9.453 1.069 6.17-.713 10.544-3.675 15.922h-2l-.375 2.813C234 170 234 170 232 173h-2l-.297 1.613c-.919 3.12-2.387 5.726-3.953 8.575l-1.922 3.503L222 190l-1.328 2.465c-2.265 4.175-4.71 8.175-7.297 12.16-2.602 4.03-4.682 7.893-6.375 12.375h-2l-.305 1.613c-2.583 8.868-8.474 17.624-14.695 24.387-4.435 2.218-10.184 1.526-15 1-3.125-2.125-3.125-2.125-5-5l-1.875-2.813c-1.689-4.784-1.108-8.904.867-13.49 1.251-2.4 2.575-4.738 3.946-7.072l1.38-2.441c3.344-5.846 3.344-5.846 5.682-8.184a126.235 126.235 0 0 0 2-6h2l.75-2.563c1.775-4.88 4.376-9.037 7.113-13.421 4.07-6.53 7.865-13.048 11.137-20.016h2l3-9h2l.332-1.715c1.58-5.406 5.035-10.139 9.606-13.347 4.466-1.368 8.152-1.393 12.687-.313ZM280.02 197.89c3.265.076 5.257.52 7.82 2.61 3.509 4.095 5.261 8.025 4.957 13.441-2.245 8.616-7.406 17.035-12.797 24.059a79.495 79.495 0 0 0-1.938 3.813c-1.862 3.833-3.915 7.506-6.062 11.187h-2l-.313 2.813c-.747 3.463-1.282 3.86-3.687 6.187-1.044 1.712-1.044 1.712-1.902 3.582l-1.01 2.076-1.026 2.154c-2.393 5.004-4.933 9.59-8.062 14.188a269.55 269.55 0 0 0-2.813 5.375c-6.479 11.873-6.479 11.873-12.386 14.664-4.058 1.144-6.447 1.061-10.551-.101-4.386-2.615-7.607-5.008-9.25-9.938-.609-6.21 1.015-9.785 4-15l1.203-2.227c1.983-3.651 4.052-7.213 6.297-10.71 2.866-4.505 5.186-9.258 7.5-14.063h2l1-3.75c1.789-5.462 4.853-9.797 8.16-14.453 1.708-2.596 2.728-4.915 3.84-7.797a240.449 240.449 0 0 1 3.75-6.75l1.073-1.863c8.86-15.248 8.86-15.248 13.177-18.387 3.066-.767 5.878-.94 9.02-1.11ZM378 138c5.684 3.053 5.684 3.053 7 7h2c2.212 6.188 2.213 10.333-.52 16.32-2.297 4.159-4.968 8.036-7.668 11.942-2.063 3.118-3.393 6.283-4.812 9.738-2.704 4.86-5.564 9.629-8.445 14.387-5.551 9.33-10.87 18.817-15.555 28.613h-2l-.25 1.625c-1.022 3.235-2.808 5.6-4.75 8.375l-2.063 3.25C339 242 339 242 336 244c-5.827.73-11.21 1.253-16.125-2.188L318 239l-1.813-2.375c-1.62-3.58-1.587-5.682-1.187-9.625 1.46-3.525 3.329-6.77 5.25-10.063l1.488-2.642A204.355 204.355 0 0 1 330 201a208.624 208.624 0 0 0 2.875-5.188l1.547-2.87L336 190c3.273-6.036 6.565-12.055 10-18h2l.563-2.813c1.324-4.705 4.027-8.444 6.71-12.48A51.945 51.945 0 0 0 359 149.75c2.088-4.383 5.223-7.727 9-10.75 3.62-1.206 6.192-1.323 10-1Z" fill="#C6F650"/><path d="M223 139v2h-2l-.313 1.938L220 145l-3 1-1 10c-3 1-3 1-6 1l-1-1-.375 2.125c-.682 3.135-1.318 5.935-2.625 8.875-2.625 1.375-2.625 1.375-5 2l2-6h2l3-9h2l.324-1.71c.787-2.667 1.958-4.598 3.488-6.915l1.52-2.352c2.195-2.662 4.172-4.023 7.668-4.023Z" fill="#CAF559"/><path d="M286 199c3.612 2.965 5.745 6.085 6.367 10.754A63.532 63.532 0 0 1 292 217h-1v-9h-2l-1.688-3c-1.228-1.795-1.228-1.795-3.312-3-5.048-.549-9.943-.344-15 0v-2c5.98-1.675 10.959-2.783 17-1Z" fill="#CCF16B"/><path d="m272 245 3 2-3 6h-2l-1 6c-1-3-1-3-1-5l-4 2c.125-3.313.125-3.313 1-7 3-1.875 3-1.875 6-3l1-1Z" fill="#CCF55E"/><path d="M102 231c1.063 1.875 1.063 1.875 2 4l-1 2h-2l1 6-5 4-2-1-2 5-1-2a100.644 100.644 0 0 1 3-6h2l.813-2.625c1.158-3.293 2.57-6.286 4.187-9.375Z" fill="#CEF462"/><path d="m321 216 1 2 2 1-1.875 1.063c-3.652 3.33-4.015 7.481-4.375 12.25-.024 2.838-.024 2.838 2.25 4.687-.375 2.125-.375 2.125-1 4-3.185-4.877-4.997-8.02-4-14 1.781-3.805 3.82-7.411 6-11Z" fill="#CDF268"/><path d="m243 296 3 1c-2.71 4.02-4.611 6.284-9.375 7.563-4.637.756-7.565-.095-11.625-2.563-2.438-2.688-2.438-2.688-4-5 2.913.431 4.029 1.026 6.25 3.063 3.89 2.74 6.061 2.475 10.75 1.937l2-3h3v-3Z" fill="#D3F577"/><path d="m268 202 1 2 3 1c-2 3-2 3-5 4-1.219 2.504-1.219 2.504-2 5h-4c1.361-5.198 3.467-8.095 7-12Z" fill="#CDF460"/><path d="M194 180c1.563 1.188 1.563 1.188 3 3-.188 2.625-.188 2.625-1 5l-2 1-3-1v3h-2l-2 5-2-1c2.797-5.159 5.659-10.173 9-15Z" fill="#D1F768"/><path d="M144 209h1c.805 6.172-1.105 9.449-4.492 14.57-1.498 2.413-2.533 4.769-3.508 7.43-1.128-3.383-.818-4.768-.063-8.188l.59-2.73L138 218l5-1 1-8Z" fill="#D1F46E"/><path d="M209 208c0 3.38-.875 5.835-2 9h-2l-1 4c-1.46-2.647-2-3.894-2-7l-2-1c2.375-1.063 2.375-1.063 5-2l2 1v-3l2-1Z" fill="#CDF563"/><path d="m236 161 1 3h-2l-.375 2.813C234 170 234 170 232 173h-2l-.313 1.625c-.868 3-2.243 5.613-3.687 8.375-1.208-3.623-.543-4.641 1-8h2l.438-1.875C230 171 230 171 231 169h2v-7l3-1Z" fill="#CBF26F"/><path d="M344 176c1.117 3.719 1.117 3.719.063 6.25L343 184h-2l.313 2.188c-.438 3.94-2.441 5.22-5.313 7.812l-1 2-2-1 1.137-1.871A450.213 450.213 0 0 0 344 176Z" fill="#D0F36F"/><path d="m97 294 3 1-1 2h-2l-2 4h-2v2c-4.791 1.63-8.056 2.206-13 1v-1h10v-3l2.375-.75c2.948-1.404 3.527-2.257 4.625-5.25Z" fill="#D4F479"/><path d="m208 154 3 1a309.724 309.724 0 0 1-2.188 5.875l-1.23 3.305C206 167 206 167 203.324 168.383L201 169l2-6h2l3-9Z" fill="#D2F46B"/><path d="M126 199c1.125 3.75 1.125 3.75 0 6l-1.75-.75L122 204c-2.271 1.854-2.271 1.854-4 4 0-3.625.925-5.08 3-8 3-1 3-1 5-1Z" fill="#D0F565"/><path d="m370 179 4 2v-2l2 1-3.375 5.313-1.898 2.988A359.619 359.619 0 0 1 367 194c.495-2.804 1.127-5.366 2.063-8.063 1.14-3.058 1.14-3.058.937-6.937Z" fill="#D4F870"/><path d="M257 274h2c-1.764 4.972-4.394 9.434-7 14-1.172-4.11-.934-7.132 1-11h4v-3Z" fill="#D6F871"/><path d="M129 241c-.576 4.755-2.55 7.97-5 12l-2-4h3l-2-6c3.75-2 3.75-2 6-2Z" fill="#D0F66A"/><path d="m217 191 3 1a1321.89 1321.89 0 0 1-3.375 6.938l-.96 1.998c-2.438 4.95-2.438 4.95-4.665 6.064.375-2.938.375-2.938 1-6l2-1c1.348-2.935 2.3-5.85 3-9Z" fill="#CFF374"/><path d="m200 169 2 3-.938 1.813c-1.164 2.277-1.164 2.277-2.062 5.187-2.063.688-2.063.688-4 1 1.45-3.791 3.152-7.387 5-11Z" fill="#D2F567"/><path d="M332 197h1l1 7c-2.375 1.563-2.375 1.563-5 3l-2-1 5-9Z" fill="#CEF663"/><path d="m167 229 2 1v2h2l1 6h-3c-1.498-3.371-2-5.204-2-9Z" fill="#D4F76D"/><path d="m287 223 1 2c-1.215 2.383-1.215 2.383-2.938 5.125l-1.714 2.758L282 235c-.878-3.097-.994-4.906 0-8h3v-3l2-1Z" fill="#D3F573"/><path d="M350 165h1c.37 6.523.37 6.523-1.5 8.938L348 175l-3-1 1-2h2l2-7Z" fill="#CFF365"/><path d="M82 268c0 2.621-.313 4.51-1 7h-2l-2 5h-2c1.557-4.671 4.084-8.087 7-12Z" fill="#D6F678"/><path d="M346 226h2c-.616 4.001-2.637 6.778-5 10l-2 1-1-4 3 1 .938-3.438C345 227 345 227 346 226Z" fill="#D7F96F"/><path d="M260 214c1 4 1 4 0 6h2v2h-5v2l-2-1 5-9Z" fill="#CAF265"/><path d="M349 216c1.04 3.38 1.08 6.478 1 10l-3-1 1-4h-2v-3l3-2Z" fill="#CCF65D"/><path d="M102 231c1.063 1.875 1.063 1.875 2 4l-1 2h-2v3h-2l-1 3-1-2c.996-2.383.996-2.383 2.438-5.125l1.433-2.758L102 231Z" fill="#D5F475"/><path d="M386 145c2.819 2.819 2.73 5.09 3 9-.984 2.227-.984 2.227-2 4a470.287 470.287 0 0 1-1.063-4.813l-.597-2.707C385 148 385 148 386 145Z" fill="#D2F473"/><path d="m315 227 2 1c.34 2.332.672 4.666 1 7l2 2c-.375 2.125-.375 2.125-1 4-3.249-4.975-4.5-7.882-4-14Z" fill="#D2F07D"/><path d="m326 207 2 4-4 4-2-1 4-7Z" fill="#D0F668"/><path d="M215 144c1 2 1 2 .875 3.938-1.233 2.907-3.132 3.656-5.875 5.062 1.25-3.46 2.675-6.147 5-9Z" fill="#D0F368"/><path d="M223 138c4.548-.178 7.88.002 12 2-3.75 2-3.75 2-6 2v-3h-6v-1Z" fill="#D1F375"/></svg>